<svg width="91" height="91" viewBox="0 0 91 91" fill="none" xmlns="http://www.w3.org/2000/svg">
<rect width="91" height="91" fill="#8BBFFF"/>
<path d="M16.3285 50.5H13.8569L17.6229 39.5909H20.5952L24.3558 50.5H21.8842L19.1516 42.0838H19.0664L16.3285 50.5ZM16.174 46.212H22.0121V48.0124H16.174V46.212ZM27.6824 48.1456L27.6877 45.4237H28.0179L30.6387 42.3182H33.2434L29.7225 46.4304H29.1845L27.6824 48.1456ZM25.6262 50.5V39.5909H27.8954V50.5H25.6262ZM30.7399 50.5L28.3322 46.9364L29.845 45.3331L33.3979 50.5H30.7399ZM38.7086 42.3182V44.0227H33.7814V42.3182H38.7086ZM34.9 40.358H37.1692V47.9858C37.1692 48.1953 37.2012 48.3587 37.2651 48.4759C37.329 48.5895 37.4178 48.6694 37.5314 48.7156C37.6486 48.7617 37.7836 48.7848 37.9363 48.7848C38.0428 48.7848 38.1493 48.7759 38.2559 48.7582C38.3624 48.7369 38.4441 48.7209 38.5009 48.7102L38.8578 50.3988C38.7441 50.4343 38.5843 50.4751 38.3784 50.5213C38.1724 50.571 37.9221 50.6012 37.6273 50.6119C37.0804 50.6332 36.601 50.5604 36.1891 50.3935C35.7807 50.2266 35.4629 49.9673 35.2356 49.6158C35.0083 49.2642 34.8965 48.8203 34.9 48.2841V40.358ZM40.1868 50.5V42.3182H42.456V50.5H40.1868ZM41.3267 41.2635C40.9893 41.2635 40.6999 41.1516 40.4585 40.9279C40.2205 40.7006 40.1016 40.429 40.1016 40.1129C40.1016 39.8004 40.2205 39.5323 40.4585 39.3086C40.6999 39.0813 40.9893 38.9677 41.3267 38.9677C41.6641 38.9677 41.9517 39.0813 42.1896 39.3086C42.4311 39.5323 42.5518 39.8004 42.5518 40.1129C42.5518 40.429 42.4311 40.7006 42.1896 40.9279C41.9517 41.1516 41.6641 41.2635 41.3267 41.2635ZM51.9015 42.3182L49.0411 50.5H46.4843L43.6238 42.3182H46.0209L47.7201 48.1722H47.8053L49.4992 42.3182H51.9015ZM53.0628 50.5V42.3182H55.3319V50.5H53.0628ZM54.2027 41.2635C53.8653 41.2635 53.5759 41.1516 53.3344 40.9279C53.0965 40.7006 52.9775 40.429 52.9775 40.1129C52.9775 39.8004 53.0965 39.5323 53.3344 39.3086C53.5759 39.0813 53.8653 38.9677 54.2027 38.9677C54.54 38.9677 54.8277 39.0813 55.0656 39.3086C55.3071 39.5323 55.4278 39.8004 55.4278 40.1129C55.4278 40.429 55.3071 40.7006 55.0656 40.9279C54.8277 41.1516 54.54 41.2635 54.2027 41.2635ZM61.5016 42.3182V44.0227H56.5744V42.3182H61.5016ZM57.693 40.358H59.9622V47.9858C59.9622 48.1953 59.9941 48.3587 60.0581 48.4759C60.122 48.5895 60.2108 48.6694 60.3244 48.7156C60.4416 48.7617 60.5765 48.7848 60.7292 48.7848C60.8358 48.7848 60.9423 48.7759 61.0488 48.7582C61.1554 48.7369 61.237 48.7209 61.2939 48.7102L61.6507 50.3988C61.5371 50.4343 61.3773 50.4751 61.1713 50.5213C60.9654 50.571 60.715 50.6012 60.4203 50.6119C59.8734 50.6332 59.394 50.5604 58.9821 50.3935C58.5737 50.2266 58.2559 49.9673 58.0286 49.6158C57.8013 49.2642 57.6895 48.8203 57.693 48.2841V40.358ZM66.6206 50.6598C65.7789 50.6598 65.0545 50.4893 64.4473 50.1484C63.8436 49.804 63.3784 49.3175 63.0517 48.6889C62.725 48.0568 62.5616 47.3093 62.5616 46.4464C62.5616 45.6048 62.725 44.8661 63.0517 44.2305C63.3784 43.5948 63.8382 43.0994 64.4313 42.7443C65.0279 42.3892 65.7275 42.2116 66.53 42.2116C67.0698 42.2116 67.5723 42.2987 68.0375 42.4727C68.5062 42.6431 68.9146 42.9006 69.2626 43.245C69.6142 43.5895 69.8876 44.0227 70.0829 44.5447C70.2782 45.0632 70.3759 45.6705 70.3759 46.3665V46.9897H63.4672V45.5835H68.2399C68.2399 45.2567 68.1689 44.9673 68.0268 44.7152C67.8848 44.4631 67.6877 44.266 67.4355 44.1239C67.187 43.9783 66.8975 43.9055 66.5673 43.9055C66.2228 43.9055 65.9174 43.9854 65.6511 44.1452C65.3883 44.3015 65.1824 44.5128 65.0332 44.7791C64.8841 45.0419 64.8077 45.3349 64.8042 45.658V46.995C64.8042 47.3999 64.8787 47.7496 65.0279 48.0444C65.1806 48.3391 65.3954 48.5664 65.6724 48.7262C65.9494 48.886 66.2779 48.9659 66.6578 48.9659C66.91 48.9659 67.1408 48.9304 67.3503 48.8594C67.5598 48.7884 67.7392 48.6818 67.8883 48.5398C68.0375 48.3977 68.1511 48.2237 68.2292 48.0178L70.3279 48.1562C70.2214 48.6605 70.003 49.1009 69.6728 49.4773C69.3461 49.8501 68.9235 50.1413 68.405 50.3509C67.8901 50.5568 67.2953 50.6598 66.6206 50.6598ZM76.2086 42.3182V44.0227H71.2814V42.3182H76.2086ZM72.4 40.358H74.6692V47.9858C74.6692 48.1953 74.7012 48.3587 74.7651 48.4759C74.829 48.5895 74.9178 48.6694 75.0314 48.7156C75.1486 48.7617 75.2836 48.7848 75.4363 48.7848C75.5428 48.7848 75.6493 48.7759 75.7559 48.7582C75.8624 48.7369 75.9441 48.7209 76.0009 48.7102L76.3578 50.3988C76.2441 50.4343 76.0843 50.4751 75.8784 50.5213C75.6724 50.571 75.4221 50.6012 75.1273 50.6119C74.5804 50.6332 74.101 50.5604 73.6891 50.3935C73.2807 50.2266 72.9629 49.9673 72.7356 49.6158C72.5083 49.2642 72.3965 48.8203 72.4 48.2841V40.358Z" fill="black"/>
</svg>
