<?xml version="1.0" encoding="UTF-8" standalone="no"?>
<!DOCTYPE svg PUBLIC "-//W3C//DTD SVG 1.1//EN" "http://www.w3.org/Graphics/SVG/1.1/DTD/svg11.dtd">
<svg width="100%" height="100%" viewBox="0 0 50 50" version="1.1" xmlns="http://www.w3.org/2000/svg" xmlns:xlink="http://www.w3.org/1999/xlink" xml:space="preserve" xmlns:serif="http://www.serif.com/" style="fill-rule:evenodd;clip-rule:evenodd;stroke-linecap:round;stroke-linejoin:round;stroke-miterlimit:1.5;">
    <g transform="matrix(1,0,0,1,-496.327,-0.827638)">
        <g transform="matrix(1,0,0,1,496.327,0.827638)">
            <rect id="buy" x="0" y="0" width="50" height="50" style="fill:rgb(142,203,134);"/>
            <g id="buy1" serif:id="buy">
                <g transform="matrix(1,0,0,1,-0.688825,0.610392)">
                    <g transform="matrix(1,0,0,1,-241.498,-102.573)">
                        <g transform="matrix(16,0,0,16,271.718,132.349)">
                        </g>
                        <text x="262.819px" y="132.349px" style="font-family:'Arial-BoldMT', 'Arial', sans-serif;font-weight:700;font-size:16px;fill:white;">$</text>
                    </g>
                    <g transform="matrix(1.38093,0,0,1.38093,-334.996,-154.06)">
                        <circle cx="261.189" cy="129.224" r="9.64" style="fill:none;stroke:white;stroke-width:2.17px;"/>
                    </g>
                    <g transform="matrix(1.39591,0,0,0.651598,-345.954,-62.4186)">
                        <path d="M275.593,128.951L279.365,138.32L271.82,138.32L275.593,128.951Z" style="fill:white;stroke:white;stroke-width:2.75px;"/>
                    </g>
                    <g transform="matrix(1.39591,0,0,-0.651598,-371.59,112.45)">
                        <path d="M275.593,128.951L279.365,138.32L271.82,138.32L275.593,128.951Z" style="fill:white;stroke:white;stroke-width:2.75px;"/>
                    </g>
                </g>
            </g>
        </g>
    </g>
</svg>
