<svg width="91" height="91" viewBox="0 0 91 91" fill="none" xmlns="http://www.w3.org/2000/svg">
<rect width="91" height="91" fill="#8BBFFF"/>
<path d="M19.8217 50.5V41.0455H21.8207V45.2141H21.9453L25.3477 41.0455H27.7436L24.2351 45.2788L27.7852 50.5H25.3938L22.804 46.6129L21.8207 47.8132V50.5H19.8217ZM31.431 50.6385C30.7139 50.6385 30.0938 50.4862 29.5706 50.1815C29.0505 49.8737 28.6488 49.4459 28.3657 48.8981C28.0825 48.3472 27.941 47.7086 27.941 46.9822C27.941 46.2498 28.0825 45.6096 28.3657 45.0618C28.6488 44.5109 29.0505 44.0831 29.5706 43.7784C30.0938 43.4706 30.7139 43.3168 31.431 43.3168C32.1481 43.3168 32.7667 43.4706 33.2868 43.7784C33.81 44.0831 34.2132 44.5109 34.4964 45.0618C34.7795 45.6096 34.9211 46.2498 34.9211 46.9822C34.9211 47.7086 34.7795 48.3472 34.4964 48.8981C34.2132 49.4459 33.81 49.8737 33.2868 50.1815C32.7667 50.4862 32.1481 50.6385 31.431 50.6385ZM31.4403 49.1151C31.7665 49.1151 32.0389 49.0227 32.2574 48.8381C32.4759 48.6503 32.6405 48.3949 32.7513 48.0717C32.8652 47.7486 32.9221 47.3808 32.9221 46.9684C32.9221 46.556 32.8652 46.1882 32.7513 45.8651C32.6405 45.5419 32.4759 45.2865 32.2574 45.0987C32.0389 44.911 31.7665 44.8171 31.4403 44.8171C31.1109 44.8171 30.834 44.911 30.6093 45.0987C30.3877 45.2865 30.22 45.5419 30.1061 45.8651C29.9953 46.1882 29.9399 46.556 29.9399 46.9684C29.9399 47.3808 29.9953 47.7486 30.1061 48.0717C30.22 48.3949 30.3877 48.6503 30.6093 48.8381C30.834 49.0227 31.1109 49.1151 31.4403 49.1151ZM30.023 42.4396C29.7583 42.4396 29.5306 42.3473 29.3398 42.1626C29.1489 41.9749 29.0535 41.7533 29.0535 41.4979C29.0535 41.2363 29.1489 41.0147 29.3398 40.8331C29.5306 40.6515 29.7583 40.5607 30.023 40.5607C30.2907 40.5607 30.517 40.6515 30.7016 40.8331C30.8894 41.0147 30.9832 41.2363 30.9832 41.4979C30.9832 41.7533 30.8894 41.9749 30.7016 42.1626C30.517 42.3473 30.2907 42.4396 30.023 42.4396ZM32.8483 42.4396C32.5836 42.4396 32.3559 42.3473 32.165 42.1626C31.9742 41.9749 31.8788 41.7533 31.8788 41.4979C31.8788 41.2363 31.9742 41.0147 32.165 40.8331C32.3559 40.6515 32.5836 40.5607 32.8483 40.5607C33.116 40.5607 33.3422 40.6515 33.5269 40.8331C33.7146 41.0147 33.8085 41.2363 33.8085 41.4979C33.8085 41.7533 33.7146 41.9749 33.5269 42.1626C33.3422 42.3473 33.116 42.4396 32.8483 42.4396ZM36.1998 53.1591V43.4091H38.1388V44.6001H38.2265C38.3126 44.4093 38.4373 44.2154 38.6004 44.0185C38.7666 43.8184 38.982 43.6522 39.2467 43.5199C39.5145 43.3845 39.8469 43.3168 40.2439 43.3168C40.7609 43.3168 41.238 43.4522 41.675 43.723C42.112 43.9908 42.4613 44.3955 42.7229 44.9371C42.9845 45.4757 43.1153 46.1513 43.1153 46.9638C43.1153 47.7547 42.9876 48.4226 42.7322 48.9673C42.4798 49.509 42.1351 49.9199 41.6981 50.1999C41.2641 50.4769 40.7778 50.6154 40.2393 50.6154C39.8576 50.6154 39.5329 50.5523 39.2652 50.4261C39.0005 50.3 38.7835 50.1415 38.6143 49.9506C38.445 49.7567 38.3157 49.5613 38.2265 49.3643H38.1665V53.1591H36.1998ZM38.1249 46.9545C38.1249 47.3762 38.1834 47.744 38.3003 48.0579C38.4173 48.3718 38.5866 48.6165 38.8081 48.7919C39.0297 48.9643 39.299 49.0504 39.616 49.0504C39.9361 49.0504 40.2069 48.9627 40.4285 48.7873C40.6501 48.6088 40.8179 48.3626 40.9317 48.0487C41.0487 47.7317 41.1072 47.367 41.1072 46.9545C41.1072 46.5452 41.0502 46.1851 40.9363 45.8743C40.8225 45.5634 40.6547 45.3203 40.4331 45.1449C40.2116 44.9695 39.9392 44.8817 39.616 44.8817C39.296 44.8817 39.0251 44.9664 38.8035 45.1357C38.585 45.3049 38.4173 45.545 38.3003 45.8558C38.1834 46.1667 38.1249 46.5329 38.1249 46.9545ZM48.5443 40.6023L45.4974 51.9219H43.8032L46.8501 40.6023H48.5443ZM54.6577 43.7646C54.6207 43.3922 54.4622 43.1029 54.1822 42.8967C53.9021 42.6905 53.522 42.5874 53.0419 42.5874C52.7157 42.5874 52.4402 42.6335 52.2156 42.7259C51.9909 42.8151 51.8185 42.9397 51.6985 43.0998C51.5816 43.2598 51.5231 43.4414 51.5231 43.6445C51.5169 43.8138 51.5523 43.9615 51.6293 44.0877C51.7093 44.2139 51.8185 44.3232 51.957 44.4155C52.0955 44.5047 52.2556 44.5832 52.4371 44.6509C52.6187 44.7156 52.8126 44.771 53.0188 44.8171L53.8683 45.0202C54.2807 45.1126 54.6592 45.2357 55.0039 45.3896C55.3486 45.5434 55.6471 45.7327 55.8995 45.9574C56.1519 46.1821 56.3473 46.4467 56.4858 46.7514C56.6274 47.0561 56.6997 47.4054 56.7028 47.7994C56.6997 48.378 56.552 48.8796 56.2596 49.3043C55.9703 49.726 55.5517 50.0537 55.0039 50.2876C54.4592 50.5185 53.8021 50.6339 53.0327 50.6339C52.2694 50.6339 51.6046 50.5169 51.0384 50.283C50.4751 50.0491 50.035 49.7029 49.718 49.2443C49.4041 48.7827 49.2395 48.2118 49.2241 47.5316H51.1584C51.1799 47.8486 51.2707 48.1133 51.4308 48.3256C51.5939 48.5349 51.8108 48.6934 52.0817 48.8011C52.3556 48.9058 52.6649 48.9581 53.0096 48.9581C53.3481 48.9581 53.642 48.9089 53.8913 48.8104C54.1437 48.7119 54.3391 48.5749 54.4776 48.3995C54.6161 48.2241 54.6854 48.0225 54.6854 47.7947C54.6854 47.5824 54.6223 47.4039 54.4961 47.2592C54.373 47.1146 54.1914 46.9915 53.9513 46.8899C53.7144 46.7884 53.4235 46.696 53.0788 46.6129L52.0494 46.3544C51.2522 46.1605 50.6229 45.8574 50.1612 45.445C49.6996 45.0326 49.4703 44.477 49.4734 43.7784C49.4703 43.206 49.6226 42.7058 49.9304 42.2781C50.2412 41.8503 50.6675 41.5163 51.2092 41.2763C51.7508 41.0362 52.3664 40.9162 53.0558 40.9162C53.7575 40.9162 54.3699 41.0362 54.8931 41.2763C55.4194 41.5163 55.8287 41.8503 56.1211 42.2781C56.4135 42.7058 56.5643 43.2013 56.5735 43.7646H54.6577ZM60.0324 50.6339C59.58 50.6339 59.1768 50.5554 58.8229 50.3984C58.469 50.2384 58.1889 50.003 57.9827 49.6921C57.7796 49.3782 57.678 48.9873 57.678 48.5195C57.678 48.1256 57.7503 47.7947 57.895 47.527C58.0396 47.2592 58.2366 47.0438 58.4859 46.8807C58.7352 46.7176 59.0183 46.5945 59.3353 46.5114C59.6554 46.4283 59.9909 46.3698 60.3417 46.3359C60.7541 46.2929 61.0865 46.2528 61.3389 46.2159C61.5912 46.1759 61.7744 46.1174 61.8882 46.0405C62.0021 45.9635 62.059 45.8497 62.059 45.6989V45.6712C62.059 45.3788 61.9667 45.1526 61.782 44.9925C61.6005 44.8325 61.3419 44.7525 61.0065 44.7525C60.6526 44.7525 60.3709 44.831 60.1617 44.9879C59.9524 45.1418 59.8139 45.3357 59.7462 45.5696L57.9273 45.4219C58.0196 44.991 58.2012 44.6186 58.472 44.3047C58.7429 43.9877 59.0922 43.7446 59.52 43.5753C59.9508 43.4029 60.4494 43.3168 61.0157 43.3168C61.4097 43.3168 61.7867 43.3629 62.1468 43.4553C62.5099 43.5476 62.8315 43.6907 63.1116 43.8846C63.3947 44.0785 63.6179 44.3278 63.781 44.6325C63.9441 44.9341 64.0257 45.2957 64.0257 45.7173V50.5H62.1606V49.5167H62.1052C61.9913 49.7383 61.839 49.9337 61.6482 50.103C61.4574 50.2692 61.2281 50.4 60.9603 50.4954C60.6926 50.5877 60.3833 50.6339 60.0324 50.6339ZM60.5956 49.2766C60.8849 49.2766 61.1404 49.2197 61.3619 49.1058C61.5835 48.9889 61.7574 48.8319 61.8836 48.6349C62.0098 48.438 62.0729 48.2148 62.0729 47.9656V47.2131C62.0113 47.2531 61.9267 47.29 61.819 47.3239C61.7143 47.3546 61.5959 47.3839 61.4635 47.4116C61.3312 47.4362 61.1988 47.4593 61.0665 47.4808C60.9342 47.4993 60.8141 47.5162 60.7064 47.5316C60.4756 47.5655 60.274 47.6193 60.1017 47.6932C59.9293 47.767 59.7954 47.8671 59.7 47.9933C59.6046 48.1164 59.5569 48.2702 59.5569 48.4549C59.5569 48.7227 59.6539 48.9273 59.8477 49.0689C60.0447 49.2074 60.294 49.2766 60.5956 49.2766ZM59.6816 42.4396C59.4169 42.4396 59.1891 42.3473 58.9983 42.1626C58.8075 41.9749 58.7121 41.7533 58.7121 41.4979C58.7121 41.2363 58.8075 41.0147 58.9983 40.8331C59.1891 40.6515 59.4169 40.5607 59.6816 40.5607C59.9493 40.5607 60.1755 40.6515 60.3602 40.8331C60.5479 41.0147 60.6418 41.2363 60.6418 41.4979C60.6418 41.7533 60.5479 41.9749 60.3602 42.1626C60.1755 42.3473 59.9493 42.4396 59.6816 42.4396ZM62.5068 42.4396C62.2422 42.4396 62.0144 42.3473 61.8236 42.1626C61.6328 41.9749 61.5374 41.7533 61.5374 41.4979C61.5374 41.2363 61.6328 41.0147 61.8236 40.8331C62.0144 40.6515 62.2422 40.5607 62.5068 40.5607C62.7746 40.5607 63.0008 40.6515 63.1855 40.8331C63.3732 41.0147 63.4671 41.2363 63.4671 41.4979C63.4671 41.7533 63.3732 41.9749 63.1855 42.1626C63.0008 42.3473 62.7746 42.4396 62.5068 42.4396ZM67.518 41.0455V50.5H65.5514V41.0455H67.518ZM69.0934 43.4091H71.06V50.8509C71.06 51.3987 70.9523 51.8419 70.7369 52.1804C70.5214 52.5189 70.2121 52.7667 69.8089 52.9237C69.4089 53.0806 68.9303 53.1591 68.3732 53.1591C68.3055 53.1591 68.2409 53.1576 68.1793 53.1545C68.1147 53.1545 68.047 53.1529 67.9762 53.1499V51.6126C68.0285 51.6156 68.0747 51.6172 68.1147 51.6172C68.1516 51.6203 68.1916 51.6218 68.2347 51.6218C68.5517 51.6218 68.7733 51.5541 68.8995 51.4187C69.0288 51.2863 69.0934 51.0863 69.0934 50.8185V43.4091ZM70.0721 42.495C69.7828 42.495 69.5335 42.3981 69.3242 42.2042C69.1149 42.0072 69.0103 41.7718 69.0103 41.4979C69.0103 41.227 69.1149 40.9947 69.3242 40.8008C69.5335 40.6038 69.7828 40.5053 70.0721 40.5053C70.3675 40.5053 70.6184 40.6038 70.8246 40.8008C71.0339 40.9947 71.1385 41.227 71.1385 41.4979C71.1385 41.7718 71.0339 42.0072 70.8246 42.2042C70.6184 42.3981 70.3675 42.495 70.0721 42.495Z" fill="black"/>
</svg>
