<?xml version="1.0" encoding="UTF-8" standalone="no"?>
<!DOCTYPE svg PUBLIC "-//W3C//DTD SVG 1.1//EN" "http://www.w3.org/Graphics/SVG/1.1/DTD/svg11.dtd">
<svg width="100%" height="100%" viewBox="0 0 50 50" version="1.1" xmlns="http://www.w3.org/2000/svg" xmlns:xlink="http://www.w3.org/1999/xlink" xml:space="preserve" xmlns:serif="http://www.serif.com/" style="fill-rule:evenodd;clip-rule:evenodd;stroke-linecap:round;stroke-linejoin:round;stroke-miterlimit:1.5;">
    <g transform="matrix(1,0,0,1,-378.441,-0.827638)">
        <g transform="matrix(1,0,0,1,378.441,0.827638)">
            <rect id="education" x="0" y="0" width="50" height="50" style="fill:rgb(144,134,203);"/>
            <g id="education1" serif:id="education">
                <g transform="matrix(0.65,0,0,0.65,6.8,9.32984)">
                    <g transform="matrix(1,0,0,0.965517,-126,-102.681)">
                        <path d="M154,119C147.255,115.323 140.554,113.096 134,115.893L134,144.893C141.111,142.499 147.609,145.256 154,148L154,119Z" style="fill:none;stroke:white;stroke-width:4.7px;"/>
                    </g>
                    <g transform="matrix(-1,0,0,0.965517,182,-102.681)">
                        <path d="M154,119C147.255,115.323 140.554,113.096 134,115.893L134,144.893C141.111,142.499 147.609,145.256 154,148L154,119Z" style="fill:none;stroke:white;stroke-width:4.7px;"/>
                    </g>
                </g>
            </g>
        </g>
    </g>
</svg>
