<?xml version="1.0" encoding="UTF-8" standalone="no"?>
<!DOCTYPE svg PUBLIC "-//W3C//DTD SVG 1.1//EN" "http://www.w3.org/Graphics/SVG/1.1/DTD/svg11.dtd">
<svg width="100%" height="100%" viewBox="0 0 50 50" version="1.1" xmlns="http://www.w3.org/2000/svg" xmlns:xlink="http://www.w3.org/1999/xlink" xml:space="preserve" xmlns:serif="http://www.serif.com/" style="fill-rule:evenodd;clip-rule:evenodd;stroke-linecap:round;stroke-linejoin:round;stroke-miterlimit:1.5;">
    <g transform="matrix(1,0,0,1,-260.556,-0.827638)">
        <g transform="matrix(1,0,0,1,260.556,0.827638)">
            <rect id="event" x="0" y="0" width="50" height="50" style="fill:rgb(203,134,183);"/>
            <g id="event1" serif:id="event">
                <g>
                    <g transform="matrix(0.756757,0,0,0.756757,3.43243,2.88514)">
                        <path d="M47,20.75C47,16.473 43.527,13 39.25,13L17.75,13C13.473,13 10,16.473 10,20.75L10,36.25C10,40.527 13.473,44 17.75,44L39.25,44C43.527,44 47,40.527 47,36.25L47,20.75Z" style="fill:none;"/>
                        <clipPath id="_clip1">
                            <path d="M47,20.75C47,16.473 43.527,13 39.25,13L17.75,13C13.473,13 10,16.473 10,20.75L10,36.25C10,40.527 13.473,44 17.75,44L39.25,44C43.527,44 47,40.527 47,36.25L47,20.75Z"/>
                        </clipPath>
                        <g clip-path="url(#_clip1)">
                            <g transform="matrix(1,0,0,1,3.5,3.5)">
                                <path d="M7,17L43,17" style="fill:none;stroke:white;stroke-width:2.64px;"/>
                            </g>
                        </g>
                        <path d="M47,20.75C47,16.473 43.527,13 39.25,13L17.75,13C13.473,13 10,16.473 10,20.75L10,36.25C10,40.527 13.473,44 17.75,44L39.25,44C43.527,44 47,40.527 47,36.25L47,20.75Z" style="fill:none;stroke:white;stroke-width:3.96px;"/>
                    </g>
                    <g transform="matrix(0.756757,0,0,0.972973,6.08108,4.4527)">
                        <path d="M19,5.583C19,5.261 18.664,5 18.25,5L16.75,5C16.336,5 16,5.261 16,5.583L16,11.417C16,11.739 16.336,12 16.75,12L18.25,12C18.664,12 19,11.739 19,11.417L19,5.583Z" style="fill:white;stroke:white;stroke-width:1.15px;"/>
                    </g>
                    <g transform="matrix(0.756757,0,0,0.972973,18.1892,4.4527)">
                        <path d="M19,5.583C19,5.261 18.664,5 18.25,5L16.75,5C16.336,5 16,5.261 16,5.583L16,11.417C16,11.739 16.336,12 16.75,12L18.25,12C18.664,12 19,11.739 19,11.417L19,5.583Z" style="fill:white;stroke:white;stroke-width:1.15px;"/>
                    </g>
                    <g transform="matrix(0.756757,0,0,0.756757,6.83784,8.3099)">
                        <path d="M24,17L25.572,21.837L30.657,21.837L26.543,24.826L28.114,29.663L24,26.674L19.886,29.663L21.457,24.826L17.343,21.837L22.428,21.837L24,17Z" style="fill:white;stroke:white;stroke-width:1.32px;"/>
                    </g>
                </g>
            </g>
        </g>
    </g>
</svg>
