<svg width="91" height="91" viewBox="0 0 91 91" fill="none" xmlns="http://www.w3.org/2000/svg">
<rect width="91" height="91" fill="#8BBFFF"/>
<path d="M8.82173 50.5V41.0455H15.1925V42.6935H10.8207V44.9464H14.8647V46.5945H10.8207V48.8519H15.2109V50.5H8.82173ZM23.3556 43.4091L20.8765 50.5H18.6606L16.1816 43.4091H18.259L19.7316 48.4826H19.8055L21.2735 43.4091H23.3556ZM27.365 50.6385C26.6356 50.6385 26.0077 50.4908 25.4814 50.1953C24.9582 49.8968 24.5551 49.4751 24.2719 48.9304C23.9888 48.3826 23.8472 47.7347 23.8472 46.9869C23.8472 46.2575 23.9888 45.6173 24.2719 45.0664C24.5551 44.5155 24.9536 44.0862 25.4676 43.7784C25.9846 43.4706 26.5909 43.3168 27.2865 43.3168C27.7543 43.3168 28.1898 43.3922 28.593 43.543C28.9992 43.6907 29.3531 43.9138 29.6547 44.2124C29.9594 44.5109 30.1964 44.8864 30.3657 45.3388C30.5349 45.7881 30.6196 46.3144 30.6196 46.9176V47.4577H24.632V46.239H28.7684C28.7684 45.9558 28.7068 45.705 28.5837 45.4865C28.4606 45.268 28.2898 45.0972 28.0713 44.9741C27.8559 44.8479 27.605 44.7848 27.3188 44.7848C27.0203 44.7848 26.7556 44.854 26.5248 44.9925C26.297 45.128 26.1185 45.3111 25.9893 45.5419C25.86 45.7696 25.7938 46.0236 25.7907 46.3036V47.4624C25.7907 47.8132 25.8554 48.1164 25.9846 48.3718C26.117 48.6272 26.3032 48.8242 26.5432 48.9627C26.7833 49.1012 27.068 49.1705 27.3973 49.1705C27.6158 49.1705 27.8158 49.1397 27.9974 49.0781C28.179 49.0166 28.3344 48.9242 28.4637 48.8011C28.593 48.678 28.6914 48.5272 28.7591 48.3487L30.578 48.4688C30.4857 48.9058 30.2964 49.2874 30.0102 49.6136C29.7271 49.9368 29.3608 50.1892 28.9115 50.3707C28.4652 50.5492 27.9497 50.6385 27.365 50.6385ZM33.8696 46.4006V50.5H31.903V43.4091H33.7773V44.6602H33.8604C34.0173 44.2478 34.2805 43.9215 34.6498 43.6815C35.0191 43.4383 35.4669 43.3168 35.9932 43.3168C36.4856 43.3168 36.9149 43.4245 37.2812 43.6399C37.6474 43.8554 37.9321 44.1631 38.1352 44.5632C38.3383 44.9602 38.4399 45.4342 38.4399 45.9851V50.5H36.4733V46.3359C36.4764 45.902 36.3656 45.5634 36.1409 45.3203C35.9162 45.0741 35.6069 44.951 35.213 44.951C34.9483 44.951 34.7144 45.0079 34.5113 45.1218C34.3112 45.2357 34.1543 45.4019 34.0404 45.6204C33.9296 45.8358 33.8727 46.0959 33.8696 46.4006ZM43.2214 50.6385C42.492 50.6385 41.8642 50.4908 41.3379 50.1953C40.8147 49.8968 40.4115 49.4751 40.1284 48.9304C39.8452 48.3826 39.7037 47.7347 39.7037 46.9869C39.7037 46.2575 39.8452 45.6173 40.1284 45.0664C40.4115 44.5155 40.8101 44.0862 41.324 43.7784C41.8411 43.4706 42.4474 43.3168 43.1429 43.3168C43.6107 43.3168 44.0462 43.3922 44.4494 43.543C44.8556 43.6907 45.2096 43.9138 45.5112 44.2124C45.8159 44.5109 46.0529 44.8864 46.2221 45.3388C46.3914 45.7881 46.476 46.3144 46.476 46.9176V47.4577H40.4885V46.239H44.6248C44.6248 45.9558 44.5633 45.705 44.4402 45.4865C44.3171 45.268 44.1462 45.0972 43.9277 44.9741C43.7123 44.8479 43.4615 44.7848 43.1752 44.7848C42.8767 44.7848 42.612 44.854 42.3812 44.9925C42.1535 45.128 41.975 45.3111 41.8457 45.5419C41.7164 45.7696 41.6503 46.0236 41.6472 46.3036V47.4624C41.6472 47.8132 41.7118 48.1164 41.8411 48.3718C41.9734 48.6272 42.1596 48.8242 42.3997 48.9627C42.6397 49.1012 42.9244 49.1705 43.2537 49.1705C43.4722 49.1705 43.6723 49.1397 43.8539 49.0781C44.0355 49.0166 44.1909 48.9242 44.3201 48.8011C44.4494 48.678 44.5479 48.5272 44.6156 48.3487L46.4345 48.4688C46.3422 48.9058 46.1529 49.2874 45.8667 49.6136C45.5835 49.9368 45.2173 50.1892 44.7679 50.3707C44.3217 50.5492 43.8062 50.6385 43.2214 50.6385ZM47.7594 50.5V43.4091H49.6337V44.6602H49.7168C49.8645 44.2447 50.1107 43.9169 50.4554 43.6768C50.8001 43.4368 51.2125 43.3168 51.6926 43.3168C52.1789 43.3168 52.5929 43.4383 52.9345 43.6815C53.2761 43.9215 53.5038 44.2478 53.6177 44.6602H53.6916C53.8362 44.2539 54.0978 43.9292 54.4764 43.6861C54.858 43.4399 55.3089 43.3168 55.829 43.3168C56.4907 43.3168 57.0278 43.5276 57.4402 43.9492C57.8556 44.3678 58.0634 44.9618 58.0634 45.7312V50.5H56.1014V46.119C56.1014 45.725 55.9967 45.4296 55.7875 45.2326C55.5782 45.0356 55.3166 44.9371 55.0027 44.9371C54.6457 44.9371 54.3671 45.051 54.1671 45.2788C53.967 45.5034 53.867 45.8004 53.867 46.1697V50.5H51.9604V46.0774C51.9604 45.7296 51.8604 45.4527 51.6603 45.2464C51.4634 45.0402 51.2033 44.9371 50.8801 44.9371C50.6616 44.9371 50.4647 44.9925 50.2892 45.1033C50.1169 45.2111 49.9799 45.3634 49.8784 45.5604C49.7768 45.7543 49.726 45.982 49.726 46.2436V50.5H47.7594ZM61.6388 50.6339C61.1864 50.6339 60.7833 50.5554 60.4293 50.3984C60.0754 50.2384 59.7953 50.003 59.5891 49.6921C59.386 49.3782 59.2844 48.9873 59.2844 48.5195C59.2844 48.1256 59.3568 47.7947 59.5014 47.527C59.6461 47.2592 59.843 47.0438 60.0923 46.8807C60.3416 46.7176 60.6248 46.5945 60.9418 46.5114C61.2618 46.4283 61.5973 46.3698 61.9482 46.3359C62.3606 46.2929 62.6929 46.2528 62.9453 46.2159C63.1977 46.1759 63.3808 46.1174 63.4947 46.0405C63.6085 45.9635 63.6655 45.8497 63.6655 45.6989V45.6712C63.6655 45.3788 63.5732 45.1526 63.3885 44.9925C63.2069 44.8325 62.9484 44.7525 62.6129 44.7525C62.259 44.7525 61.9774 44.831 61.7681 44.9879C61.5588 45.1418 61.4203 45.3357 61.3526 45.5696L59.5337 45.4219C59.6261 44.991 59.8076 44.6186 60.0785 44.3047C60.3493 43.9877 60.6986 43.7446 61.1264 43.5753C61.5573 43.4029 62.0559 43.3168 62.6222 43.3168C63.0161 43.3168 63.3931 43.3629 63.7532 43.4553C64.1164 43.5476 64.438 43.6907 64.718 43.8846C65.0012 44.0785 65.2243 44.3278 65.3874 44.6325C65.5505 44.9341 65.6321 45.2957 65.6321 45.7173V50.5H63.767V49.5167H63.7116C63.5978 49.7383 63.4454 49.9337 63.2546 50.103C63.0638 50.2692 62.8345 50.4 62.5668 50.4954C62.299 50.5877 61.9897 50.6339 61.6388 50.6339ZM62.2021 49.2766C62.4914 49.2766 62.7468 49.2197 62.9684 49.1058C63.19 48.9889 63.3639 48.8319 63.4901 48.6349C63.6162 48.438 63.6793 48.2148 63.6793 47.9656V47.2131C63.6178 47.2531 63.5331 47.29 63.4254 47.3239C63.3208 47.3546 63.2023 47.3839 63.07 47.4116C62.9376 47.4362 62.8053 47.4593 62.6729 47.4808C62.5406 47.4993 62.4206 47.5162 62.3129 47.5316C62.082 47.5655 61.8804 47.6193 61.7081 47.6932C61.5357 47.767 61.4019 47.8671 61.3065 47.9933C61.2111 48.1164 61.1634 48.2702 61.1634 48.4549C61.1634 48.7227 61.2603 48.9273 61.4542 49.0689C61.6512 49.2074 61.9004 49.2766 62.2021 49.2766ZM69.1245 46.4006V50.5H67.1578V43.4091H69.0321V44.6602H69.1152C69.2722 44.2478 69.5353 43.9215 69.9047 43.6815C70.274 43.4383 70.7218 43.3168 71.248 43.3168C71.7405 43.3168 72.1698 43.4245 72.536 43.6399C72.9023 43.8554 73.187 44.1631 73.3901 44.5632C73.5932 44.9602 73.6948 45.4342 73.6948 45.9851V50.5H71.7282V46.3359C71.7312 45.902 71.6204 45.5634 71.3958 45.3203C71.1711 45.0741 70.8618 44.951 70.4679 44.951C70.2032 44.951 69.9693 45.0079 69.7662 45.1218C69.5661 45.2357 69.4092 45.4019 69.2953 45.6204C69.1845 45.8358 69.1275 46.0959 69.1245 46.4006ZM78.4394 53.3068C77.8023 53.3068 77.256 53.2191 76.8005 53.0437C76.3481 52.8713 75.988 52.6359 75.7203 52.3374C75.4525 52.0388 75.2786 51.7034 75.1986 51.331L77.0175 51.0863C77.0729 51.2279 77.1606 51.3602 77.2806 51.4833C77.4007 51.6064 77.5592 51.7049 77.7561 51.7788C77.9562 51.8557 78.1993 51.8942 78.4855 51.8942C78.9133 51.8942 79.2657 51.7895 79.5427 51.5803C79.8228 51.3741 79.9628 51.0278 79.9628 50.5415V49.2443H79.8797C79.7935 49.4413 79.6643 49.6275 79.4919 49.8029C79.3196 49.9783 79.098 50.1214 78.8271 50.2322C78.5563 50.343 78.2332 50.3984 77.8577 50.3984C77.3253 50.3984 76.8405 50.2753 76.4035 50.0291C75.9695 49.7798 75.6233 49.3997 75.3648 48.8888C75.1093 48.3749 74.9816 47.7255 74.9816 46.9407C74.9816 46.1374 75.1124 45.4665 75.374 44.9279C75.6356 44.3893 75.9834 43.9862 76.4173 43.7184C76.8544 43.4506 77.3329 43.3168 77.8531 43.3168C78.2501 43.3168 78.5825 43.3845 78.8502 43.5199C79.118 43.6522 79.3334 43.8184 79.4965 44.0185C79.6627 44.2154 79.7905 44.4093 79.8797 44.6001H79.9536V43.4091H81.9063V50.5692C81.9063 51.1725 81.7586 51.6772 81.4632 52.0835C81.1677 52.4897 80.7584 52.7944 80.2352 52.9975C79.7151 53.2037 79.1164 53.3068 78.4394 53.3068ZM78.4809 48.9212C78.7979 48.9212 79.0657 48.8427 79.2842 48.6857C79.5058 48.5257 79.675 48.2979 79.792 48.0025C79.912 47.704 79.972 47.3469 79.972 46.9315C79.972 46.516 79.9136 46.1559 79.7966 45.8512C79.6797 45.5434 79.5104 45.3049 79.2888 45.1357C79.0672 44.9664 78.7979 44.8817 78.4809 44.8817C78.1578 44.8817 77.8854 44.9695 77.6638 45.1449C77.4422 45.3172 77.2745 45.5573 77.1606 45.8651C77.0467 46.1728 76.9898 46.5283 76.9898 46.9315C76.9898 47.3408 77.0467 47.6947 77.1606 47.9933C77.2776 48.2887 77.4453 48.518 77.6638 48.6811C77.8854 48.8411 78.1578 48.9212 78.4809 48.9212Z" fill="black"/>
</svg>
