<?xml version="1.0" encoding="UTF-8" standalone="no"?>
<!DOCTYPE svg PUBLIC "-//W3C//DTD SVG 1.1//EN" "http://www.w3.org/Graphics/SVG/1.1/DTD/svg11.dtd">
<svg width="100%" height="100%" viewBox="0 0 50 50" version="1.1" xmlns="http://www.w3.org/2000/svg" xmlns:xlink="http://www.w3.org/1999/xlink" xml:space="preserve" xmlns:serif="http://www.serif.com/" style="fill-rule:evenodd;clip-rule:evenodd;stroke-linecap:round;stroke-linejoin:round;stroke-miterlimit:1.5;">
    <g transform="matrix(1,0,0,1,-437.384,-0.827638)">
        <g transform="matrix(1,0,0,1,437.384,0.827638)">
            <rect id="lost" x="0" y="0" width="50" height="50" style="fill:rgb(133,203,192);"/>
            <g id="lost1" serif:id="lost">
                <g transform="matrix(1,0,0,1,-0.688825,0.610392)">
                    <g transform="matrix(0.788,-0.583755,0.583755,0.788,-10.7261,20.8672)">
                        <g transform="matrix(1.43755,1.70194e-16,-1.23978e-16,1.43755,-268.166,-164.35)">
                            <circle cx="201.5" cy="126.5" r="3.5" style="fill:none;stroke:white;stroke-width:2.13px;"/>
                        </g>
                        <g transform="matrix(0.691738,0,0,0.842988,-118.909,-85.9766)">
                            <path d="M199.367,129.274L199.367,143L203.002,146.635L206.595,143.042L206.125,140.537L207.511,138.116L205.711,136.021L207.016,134.055L205.413,132.347L205.615,128.998" style="fill:none;stroke:white;stroke-width:3.97px;"/>
                        </g>
                    </g>
                    <g transform="matrix(0.874828,0.484433,-0.484433,0.874828,-89.2695,-190.273)">
                        <rect x="206" y="116" width="9" height="16" style="fill:none;stroke:white;stroke-width:3px;"/>
                    </g>
                    <g transform="matrix(0.999854,0.0171,-0.0171,0.999854,-176.873,-113.133)">
                        <path d="M215,125L217,126" style="fill:none;stroke:white;stroke-width:1.5px;"/>
                    </g>
                </g>
            </g>
        </g>
    </g>
</svg>
