<svg width="40" height="40" viewBox="0 0 40 40" fill="none" xmlns="http://www.w3.org/2000/svg">
<path d="M39.2645 20C39.2645 30.6395 30.6395 39.2645 20 39.2645C9.36048 39.2645 0.735443 30.6395 0.735443 20C0.735443 9.36048 9.36048 0.735443 20 0.735443C30.6395 0.735443 39.2645 9.36048 39.2645 20Z" fill="black"/>
<path d="M17.548 31.842V14.3874H22.3889V31.842H17.548ZM19.9798 12.1374C19.2601 12.1374 18.6427 11.8988 18.1276 11.4215C17.62 10.9367 17.3662 10.3571 17.3662 9.68287C17.3662 9.01621 17.62 8.44424 18.1276 7.96696C18.6427 7.48212 19.2601 7.23969 19.9798 7.23969C20.6995 7.23969 21.3132 7.48212 21.8208 7.96696C22.3359 8.44424 22.5935 9.01621 22.5935 9.68287C22.5935 10.3571 22.3359 10.9367 21.8208 11.4215C21.3132 11.8988 20.6995 12.1374 19.9798 12.1374Z" fill="white"/>
</svg>
