<svg width="91" height="91" viewBox="0 0 91 91" fill="none" xmlns="http://www.w3.org/2000/svg">
<rect width="91" height="91" fill="#8BBFFF"/>
<path d="M17.7642 52.5V37.9545H20.8395V49.9645H27.0753V52.5H17.7642ZM41.9119 45.2273C41.9119 46.8134 41.6113 48.1629 41.0099 49.2756C40.4134 50.3883 39.599 51.2382 38.5668 51.8253C37.5393 52.4077 36.384 52.6989 35.1009 52.6989C33.8082 52.6989 32.6482 52.4053 31.6207 51.8182C30.5933 51.2311 29.7813 50.3812 29.1847 49.2685C28.5881 48.1558 28.2898 46.8087 28.2898 45.2273C28.2898 43.6411 28.5881 42.2917 29.1847 41.179C29.7813 40.0663 30.5933 39.2187 31.6207 38.6364C32.6482 38.0492 33.8082 37.7557 35.1009 37.7557C36.384 37.7557 37.5393 38.0492 38.5668 38.6364C39.599 39.2187 40.4134 40.0663 41.0099 41.179C41.6113 42.2917 41.9119 43.6411 41.9119 45.2273ZM38.794 45.2273C38.794 44.1998 38.6402 43.3333 38.3324 42.6278C38.0294 41.9223 37.6009 41.3873 37.0469 41.0227C36.4929 40.6581 35.8442 40.4759 35.1009 40.4759C34.3575 40.4759 33.7088 40.6581 33.1548 41.0227C32.6009 41.3873 32.17 41.9223 31.8622 42.6278C31.5592 43.3333 31.4077 44.1998 31.4077 45.2273C31.4077 46.2547 31.5592 47.1212 31.8622 47.8267C32.17 48.5322 32.6009 49.0672 33.1548 49.4318C33.7088 49.7964 34.3575 49.9787 35.1009 49.9787C35.8442 49.9787 36.4929 49.7964 37.0469 49.4318C37.6009 49.0672 38.0294 48.5322 38.3324 47.8267C38.6402 47.1212 38.794 46.2547 38.794 45.2273ZM53.8349 42.6562C53.7354 42.3106 53.5958 42.0052 53.4158 41.7401C53.2359 41.4702 53.0157 41.2429 52.7553 41.0582C52.4996 40.8688 52.2061 40.7244 51.8746 40.625C51.5479 40.5256 51.1857 40.4759 50.788 40.4759C50.0446 40.4759 49.3912 40.6605 48.8278 41.0298C48.2691 41.3991 47.8335 41.9366 47.521 42.642C47.2085 43.3428 47.0522 44.1998 47.0522 45.2131C47.0522 46.2263 47.2061 47.0881 47.5138 47.7983C47.8216 48.5085 48.2572 49.0507 48.8207 49.4247C49.3841 49.794 50.0494 49.9787 50.8164 49.9787C51.5124 49.9787 52.1067 49.8556 52.5991 49.6094C53.0962 49.3584 53.475 49.0057 53.7354 48.5511C54.0006 48.0966 54.1332 47.5592 54.1332 46.9389L54.7582 47.0312H51.0082V44.7159H57.0948V46.5483C57.0948 47.8267 56.8249 48.9252 56.2852 49.8438C55.7454 50.7576 55.002 51.4631 54.055 51.9602C53.1081 52.4527 52.0238 52.6989 50.8022 52.6989C49.4386 52.6989 48.2406 52.3982 47.2085 51.7969C46.1763 51.1908 45.3713 50.3314 44.7937 49.2188C44.2208 48.1013 43.9343 46.7756 43.9343 45.2415C43.9343 44.0625 44.1048 43.0114 44.4457 42.0881C44.7913 41.16 45.2743 40.3741 45.8945 39.7301C46.5148 39.0862 47.2369 38.5961 48.0607 38.2599C48.8846 37.9238 49.7771 37.7557 50.7383 37.7557C51.5621 37.7557 52.3292 37.8764 53.0394 38.1179C53.7496 38.3546 54.3794 38.6908 54.9286 39.1264C55.4826 39.562 55.9348 40.0805 56.2852 40.6818C56.6355 41.2784 56.8604 41.9366 56.9599 42.6562H53.8349ZM72.7713 45.2273C72.7713 46.8134 72.4706 48.1629 71.8693 49.2756C71.2727 50.3883 70.4583 51.2382 69.4261 51.8253C68.3987 52.4077 67.2434 52.6989 65.9602 52.6989C64.6676 52.6989 63.5076 52.4053 62.4801 51.8182C61.4527 51.2311 60.6406 50.3812 60.044 49.2685C59.4474 48.1558 59.1491 46.8087 59.1491 45.2273C59.1491 43.6411 59.4474 42.2917 60.044 41.179C60.6406 40.0663 61.4527 39.2187 62.4801 38.6364C63.5076 38.0492 64.6676 37.7557 65.9602 37.7557C67.2434 37.7557 68.3987 38.0492 69.4261 38.6364C70.4583 39.2187 71.2727 40.0663 71.8693 41.179C72.4706 42.2917 72.7713 43.6411 72.7713 45.2273ZM69.6534 45.2273C69.6534 44.1998 69.4995 43.3333 69.1918 42.6278C68.8887 41.9223 68.4602 41.3873 67.9062 41.0227C67.3523 40.6581 66.7036 40.4759 65.9602 40.4759C65.2169 40.4759 64.5682 40.6581 64.0142 41.0227C63.4602 41.3873 63.0294 41.9223 62.7216 42.6278C62.4186 43.3333 62.267 44.1998 62.267 45.2273C62.267 46.2547 62.4186 47.1212 62.7216 47.8267C63.0294 48.5322 63.4602 49.0672 64.0142 49.4318C64.5682 49.7964 65.2169 49.9787 65.9602 49.9787C66.7036 49.9787 67.3523 49.7964 67.9062 49.4318C68.4602 49.0672 68.8887 48.5322 69.1918 47.8267C69.4995 47.1212 69.6534 46.2547 69.6534 45.2273Z" fill="black"/>
</svg>
