<svg width="91" height="91" viewBox="0 0 91 91" fill="none" xmlns="http://www.w3.org/2000/svg">
<rect width="91" height="91" fill="#8BBFFF"/>
<path d="M18.6616 41.0455H20.6605V47.1854C20.6605 47.8748 20.4959 48.478 20.1665 48.995C19.8403 49.5121 19.3833 49.9152 18.7955 50.2045C18.2076 50.4908 17.5228 50.6339 16.7411 50.6339C15.9563 50.6339 15.27 50.4908 14.6822 50.2045C14.0943 49.9152 13.6373 49.5121 13.3111 48.995C12.9848 48.478 12.8217 47.8748 12.8217 47.1854V41.0455H14.8207V47.0146C14.8207 47.3746 14.8991 47.6947 15.0561 47.9748C15.2161 48.2549 15.4408 48.4749 15.7301 48.6349C16.0194 48.795 16.3564 48.875 16.7411 48.875C17.1289 48.875 17.4659 48.795 17.7521 48.6349C18.0414 48.4749 18.2646 48.2549 18.4215 47.9748C18.5816 47.6947 18.6616 47.3746 18.6616 47.0146V41.0455ZM26.0399 43.4091V44.8864H21.7696V43.4091H26.0399ZM22.7391 41.7102H24.7057V48.321C24.7057 48.5026 24.7334 48.6442 24.7888 48.7457C24.8442 48.8442 24.9211 48.9135 25.0196 48.9535C25.1212 48.9935 25.2381 49.0135 25.3705 49.0135C25.4628 49.0135 25.5551 49.0058 25.6475 48.9904C25.7398 48.9719 25.8106 48.9581 25.8598 48.9489L26.1691 50.4123C26.0706 50.4431 25.9321 50.4785 25.7536 50.5185C25.5751 50.5616 25.3582 50.5877 25.1027 50.5969C24.6288 50.6154 24.2133 50.5523 23.8563 50.4077C23.5023 50.263 23.2269 50.0384 23.0299 49.7337C22.8329 49.429 22.736 49.0443 22.7391 48.5795V41.7102ZM27.5102 50.5V41.0455H29.4768V44.6001H29.5368C29.623 44.4093 29.7477 44.2154 29.9108 44.0185C30.077 43.8184 30.2924 43.6522 30.5571 43.5199C30.8248 43.3845 31.1572 43.3168 31.5542 43.3168C32.0713 43.3168 32.5483 43.4522 32.9854 43.723C33.4224 43.9908 33.7717 44.3955 34.0333 44.9371C34.2949 45.4757 34.4257 46.1513 34.4257 46.9638C34.4257 47.7547 34.298 48.4226 34.0425 48.9673C33.7902 49.509 33.4455 49.9199 33.0084 50.1999C32.5745 50.4769 32.0882 50.6154 31.5496 50.6154C31.168 50.6154 30.8433 50.5523 30.5756 50.4261C30.3109 50.3 30.0939 50.1415 29.9246 49.9506C29.7554 49.7567 29.6261 49.5613 29.5368 49.3643H29.4491V50.5H27.5102ZM29.4353 46.9545C29.4353 47.3762 29.4938 47.744 29.6107 48.0579C29.7277 48.3718 29.8969 48.6165 30.1185 48.7919C30.3401 48.9643 30.6094 49.0504 30.9264 49.0504C31.2465 49.0504 31.5173 48.9627 31.7389 48.7873C31.9605 48.6088 32.1282 48.3626 32.2421 48.0487C32.359 47.7317 32.4175 47.367 32.4175 46.9545C32.4175 46.5452 32.3606 46.1851 32.2467 45.8743C32.1328 45.5634 31.9651 45.3203 31.7435 45.1449C31.5219 44.9695 31.2496 44.8817 30.9264 44.8817C30.6063 44.8817 30.3355 44.9664 30.1139 45.1357C29.8954 45.3049 29.7277 45.545 29.6107 45.8558C29.4938 46.1667 29.4353 46.5329 29.4353 46.9545ZM35.7379 50.5V43.4091H37.7045V50.5H35.7379ZM36.7259 42.495C36.4335 42.495 36.1826 42.3981 35.9734 42.2042C35.7672 42.0072 35.6641 41.7718 35.6641 41.4979C35.6641 41.227 35.7672 40.9947 35.9734 40.8008C36.1826 40.6038 36.4335 40.5053 36.7259 40.5053C37.0182 40.5053 37.2675 40.6038 37.4737 40.8008C37.683 40.9947 37.7876 41.227 37.7876 41.4979C37.7876 41.7718 37.683 42.0072 37.4737 42.2042C37.2675 42.3981 37.0182 42.495 36.7259 42.495ZM41.2465 41.0455V50.5H39.2799V41.0455H41.2465ZM45.4348 50.6154C44.8962 50.6154 44.4084 50.4769 43.9714 50.1999C43.5375 49.9199 43.1928 49.509 42.9373 48.9673C42.685 48.4226 42.5588 47.7547 42.5588 46.9638C42.5588 46.1513 42.6896 45.4757 42.9512 44.9371C43.2128 44.3955 43.5605 43.9908 43.9945 43.723C44.4315 43.4522 44.9101 43.3168 45.4302 43.3168C45.8272 43.3168 46.1581 43.3845 46.4228 43.5199C46.6905 43.6522 46.906 43.8184 47.0691 44.0185C47.2353 44.2154 47.3614 44.4093 47.4476 44.6001H47.5076V41.0455H49.4696V50.5H47.5307V49.3643H47.4476C47.3553 49.5613 47.2245 49.7567 47.0552 49.9506C46.889 50.1415 46.6721 50.3 46.4043 50.4261C46.1396 50.5523 45.8165 50.6154 45.4348 50.6154ZM46.0581 49.0504C46.3751 49.0504 46.6428 48.9643 46.8613 48.7919C47.0829 48.6165 47.2522 48.3718 47.3691 48.0579C47.4892 47.744 47.5492 47.3762 47.5492 46.9545C47.5492 46.5329 47.4907 46.1667 47.3738 45.8558C47.2568 45.545 47.0875 45.3049 46.8659 45.1357C46.6444 44.9664 46.3751 44.8817 46.0581 44.8817C45.7349 44.8817 45.4625 44.9695 45.2409 45.1449C45.0194 45.3203 44.8516 45.5634 44.7377 45.8743C44.6239 46.1851 44.5669 46.5452 44.5669 46.9545C44.5669 47.367 44.6239 47.7317 44.7377 48.0487C44.8547 48.3626 45.0224 48.6088 45.2409 48.7873C45.4625 48.9627 45.7349 49.0504 46.0581 49.0504ZM53.0532 46.4006V50.5H51.0866V43.4091H52.9608V44.6602H53.0439C53.2009 44.2478 53.464 43.9215 53.8334 43.6815C54.2027 43.4383 54.6505 43.3168 55.1768 43.3168C55.6692 43.3168 56.0985 43.4245 56.4648 43.6399C56.831 43.8554 57.1157 44.1631 57.3188 44.5632C57.5219 44.9602 57.6235 45.4342 57.6235 45.9851V50.5H55.6569V46.3359C55.6599 45.902 55.5492 45.5634 55.3245 45.3203C55.0998 45.0741 54.7905 44.951 54.3966 44.951C54.1319 44.951 53.898 45.0079 53.6949 45.1218C53.4948 45.2357 53.3379 45.4019 53.224 45.6204C53.1132 45.8358 53.0563 46.0959 53.0532 46.4006ZM59.1735 50.5V43.4091H61.1401V50.5H59.1735ZM60.1614 42.495C59.869 42.495 59.6182 42.3981 59.4089 42.2042C59.2027 42.0072 59.0996 41.7718 59.0996 41.4979C59.0996 41.227 59.2027 40.9947 59.4089 40.8008C59.6182 40.6038 59.869 40.5053 60.1614 40.5053C60.4538 40.5053 60.7031 40.6038 60.9093 40.8008C61.1185 40.9947 61.2232 41.227 61.2232 41.4979C61.2232 41.7718 61.1185 42.0072 60.9093 42.2042C60.7031 42.3981 60.4538 42.495 60.1614 42.495ZM64.6821 46.4006V50.5H62.7155V43.4091H64.5898V44.6602H64.6729C64.8298 44.2478 65.093 43.9215 65.4623 43.6815C65.8316 43.4383 66.2794 43.3168 66.8057 43.3168C67.2981 43.3168 67.7274 43.4245 68.0937 43.6399C68.4599 43.8554 68.7446 44.1631 68.9477 44.5632C69.1508 44.9602 69.2524 45.4342 69.2524 45.9851V50.5H67.2858V46.3359C67.2889 45.902 67.1781 45.5634 66.9534 45.3203C66.7287 45.0741 66.4194 44.951 66.0255 44.951C65.7608 44.951 65.5269 45.0079 65.3238 45.1218C65.1237 45.2357 64.9668 45.4019 64.8529 45.6204C64.7421 45.8358 64.6852 46.0959 64.6821 46.4006ZM73.997 53.3068C73.3599 53.3068 72.8136 53.2191 72.3581 53.0437C71.9057 52.8713 71.5456 52.6359 71.2779 52.3374C71.0101 52.0388 70.8362 51.7034 70.7562 51.331L72.5751 51.0863C72.6305 51.2279 72.7182 51.3602 72.8382 51.4833C72.9583 51.6064 73.1168 51.7049 73.3137 51.7788C73.5138 51.8557 73.7569 51.8942 74.0431 51.8942C74.4709 51.8942 74.8233 51.7895 75.1003 51.5803C75.3804 51.3741 75.5204 51.0278 75.5204 50.5415V49.2443H75.4373C75.3511 49.4413 75.2219 49.6275 75.0495 49.8029C74.8772 49.9783 74.6556 50.1214 74.3848 50.2322C74.1139 50.343 73.7908 50.3984 73.4153 50.3984C72.8829 50.3984 72.3981 50.2753 71.9611 50.0291C71.5272 49.7798 71.1809 49.3997 70.9224 48.8888C70.667 48.3749 70.5392 47.7255 70.5392 46.9407C70.5392 46.1374 70.67 45.4665 70.9316 44.9279C71.1932 44.3893 71.541 43.9862 71.975 43.7184C72.412 43.4506 72.8906 43.3168 73.4107 43.3168C73.8077 43.3168 74.1401 43.3845 74.4078 43.5199C74.6756 43.6522 74.891 43.8184 75.0542 44.0185C75.2203 44.2154 75.3481 44.4093 75.4373 44.6001H75.5112V43.4091H77.464V50.5692C77.464 51.1725 77.3162 51.6772 77.0208 52.0835C76.7253 52.4897 76.316 52.7944 75.7928 52.9975C75.2727 53.2037 74.6741 53.3068 73.997 53.3068ZM74.0385 48.9212C74.3555 48.9212 74.6233 48.8427 74.8418 48.6857C75.0634 48.5257 75.2327 48.2979 75.3496 48.0025C75.4696 47.704 75.5297 47.3469 75.5297 46.9315C75.5297 46.516 75.4712 46.1559 75.3542 45.8512C75.2373 45.5434 75.068 45.3049 74.8464 45.1357C74.6248 44.9664 74.3555 44.8817 74.0385 44.8817C73.7154 44.8817 73.443 44.9695 73.2214 45.1449C72.9998 45.3172 72.8321 45.5573 72.7182 45.8651C72.6043 46.1728 72.5474 46.5283 72.5474 46.9315C72.5474 47.3408 72.6043 47.6947 72.7182 47.9933C72.8352 48.2887 73.0029 48.518 73.2214 48.6811C73.443 48.8411 73.7154 48.9212 74.0385 48.9212Z" fill="black"/>
</svg>
