<svg width="91" height="91" viewBox="0 0 91 91" fill="none" xmlns="http://www.w3.org/2000/svg">
<rect width="91" height="91" fill="#8BBFFF"/>
<path d="M35.0099 45.7727C35.0099 46.8037 34.8145 47.6809 34.4237 48.4041C34.0359 49.1274 33.5065 49.6798 32.8356 50.0614C32.1677 50.44 31.4168 50.6293 30.5827 50.6293C29.7425 50.6293 28.9885 50.4384 28.3207 50.0568C27.6528 49.6752 27.125 49.1228 26.7372 48.3995C26.3494 47.6763 26.1555 46.8007 26.1555 45.7727C26.1555 44.7417 26.3494 43.8646 26.7372 43.1413C27.125 42.4181 27.6528 41.8672 28.3207 41.4886C28.9885 41.107 29.7425 40.9162 30.5827 40.9162C31.4168 40.9162 32.1677 41.107 32.8356 41.4886C33.5065 41.8672 34.0359 42.4181 34.4237 43.1413C34.8145 43.8646 35.0099 44.7417 35.0099 45.7727ZM32.9833 45.7727C32.9833 45.1049 32.8833 44.5417 32.6832 44.0831C32.4863 43.6245 32.2077 43.2768 31.8477 43.0398C31.4876 42.8028 31.0659 42.6843 30.5827 42.6843C30.0996 42.6843 29.6779 42.8028 29.3178 43.0398C28.9577 43.2768 28.6777 43.6245 28.4776 44.0831C28.2807 44.5417 28.1822 45.1049 28.1822 45.7727C28.1822 46.4406 28.2807 47.0038 28.4776 47.4624C28.6777 47.9209 28.9577 48.2687 29.3178 48.5057C29.6779 48.7427 30.0996 48.8612 30.5827 48.8612C31.0659 48.8612 31.4876 48.7427 31.8477 48.5057C32.2077 48.2687 32.4863 47.9209 32.6832 47.4624C32.8833 47.0038 32.9833 46.4406 32.9833 45.7727ZM29.1747 40.076C28.91 40.076 28.6823 39.9837 28.4915 39.799C28.3007 39.6113 28.2053 39.3897 28.2053 39.1342C28.2053 38.8726 28.3007 38.651 28.4915 38.4695C28.6823 38.2879 28.91 38.1971 29.1747 38.1971C29.4425 38.1971 29.6687 38.2879 29.8533 38.4695C30.0411 38.651 30.1349 38.8726 30.1349 39.1342C30.1349 39.3897 30.0411 39.6113 29.8533 39.799C29.6687 39.9837 29.4425 40.076 29.1747 40.076ZM32 40.076C31.7353 40.076 31.5076 39.9837 31.3168 39.799C31.1259 39.6113 31.0305 39.3897 31.0305 39.1342C31.0305 38.8726 31.1259 38.651 31.3168 38.4695C31.5076 38.2879 31.7353 38.1971 32 38.1971C32.2678 38.1971 32.494 38.2879 32.6786 38.4695C32.8664 38.651 32.9602 38.8726 32.9602 39.1342C32.9602 39.3897 32.8664 39.6113 32.6786 39.799C32.494 39.9837 32.2678 40.076 32 40.076ZM43.0645 43.4091L40.5855 50.5H38.3696L35.8905 43.4091H37.968L39.4406 48.4826H39.5145L40.9825 43.4091H43.0645ZM44.0709 50.5V43.4091H45.9775V44.6463H46.0514C46.1807 44.2062 46.3976 43.8738 46.7023 43.6491C47.007 43.4214 47.3579 43.3075 47.7549 43.3075C47.8534 43.3075 47.9595 43.3137 48.0734 43.326C48.1873 43.3383 48.2873 43.3552 48.3735 43.3768V45.1218C48.2812 45.0941 48.1534 45.0695 47.9903 45.0479C47.8272 45.0264 47.6779 45.0156 47.5425 45.0156C47.2532 45.0156 46.9947 45.0787 46.767 45.2049C46.5423 45.328 46.3638 45.5004 46.2314 45.7219C46.1022 45.9435 46.0376 46.199 46.0376 46.4883V50.5H44.0709ZM49.3903 50.5V43.4091H51.3569V50.5H49.3903ZM50.3782 42.495C50.0858 42.495 49.835 42.3981 49.6257 42.2042C49.4195 42.0072 49.3164 41.7718 49.3164 41.4979C49.3164 41.227 49.4195 40.9947 49.6257 40.8008C49.835 40.6038 50.0858 40.5053 50.3782 40.5053C50.6706 40.5053 50.9199 40.6038 51.1261 40.8008C51.3353 40.9947 51.44 41.227 51.44 41.4979C51.44 41.7718 51.3353 42.0072 51.1261 42.2042C50.9199 42.3981 50.6706 42.495 50.3782 42.495ZM56.1269 53.3068C55.4898 53.3068 54.9435 53.2191 54.488 53.0437C54.0356 52.8713 53.6755 52.6359 53.4078 52.3374C53.14 52.0388 52.9661 51.7034 52.8861 51.331L54.705 51.0863C54.7604 51.2279 54.8481 51.3602 54.9681 51.4833C55.0882 51.6064 55.2467 51.7049 55.4436 51.7788C55.6437 51.8557 55.8868 51.8942 56.173 51.8942C56.6008 51.8942 56.9532 51.7895 57.2302 51.5803C57.5103 51.3741 57.6503 51.0278 57.6503 50.5415V49.2443H57.5672C57.481 49.4413 57.3518 49.6275 57.1794 49.8029C57.0071 49.9783 56.7855 50.1214 56.5146 50.2322C56.2438 50.343 55.9207 50.3984 55.5452 50.3984C55.0128 50.3984 54.528 50.2753 54.091 50.0291C53.657 49.7798 53.3108 49.3997 53.0523 48.8888C52.7968 48.3749 52.6691 47.7255 52.6691 46.9407C52.6691 46.1374 52.7999 45.4665 53.0615 44.9279C53.3231 44.3893 53.6709 43.9862 54.1048 43.7184C54.5419 43.4506 55.0204 43.3168 55.5406 43.3168C55.9376 43.3168 56.27 43.3845 56.5377 43.5199C56.8055 43.6522 57.0209 43.8184 57.184 44.0185C57.3502 44.2154 57.478 44.4093 57.5672 44.6001H57.6411V43.4091H59.5938V50.5692C59.5938 51.1725 59.4461 51.6772 59.1507 52.0835C58.8552 52.4897 58.4459 52.7944 57.9227 52.9975C57.4026 53.2037 56.8039 53.3068 56.1269 53.3068ZM56.1684 48.9212C56.4854 48.9212 56.7532 48.8427 56.9717 48.6857C57.1933 48.5257 57.3625 48.2979 57.4795 48.0025C57.5995 47.704 57.6595 47.3469 57.6595 46.9315C57.6595 46.516 57.6011 46.1559 57.4841 45.8512C57.3672 45.5434 57.1979 45.3049 56.9763 45.1357C56.7547 44.9664 56.4854 44.8817 56.1684 44.8817C55.8453 44.8817 55.5729 44.9695 55.3513 45.1449C55.1297 45.3172 54.962 45.5573 54.8481 45.8651C54.7342 46.1728 54.6773 46.5283 54.6773 46.9315C54.6773 47.3408 54.7342 47.6947 54.8481 47.9933C54.9651 48.2887 55.1328 48.518 55.3513 48.6811C55.5729 48.8411 55.8453 48.9212 56.1684 48.9212ZM64.9305 43.4091V44.8864H60.6602V43.4091H64.9305ZM61.6297 41.7102H63.5963V48.321C63.5963 48.5026 63.624 48.6442 63.6794 48.7457C63.7348 48.8442 63.8118 48.9135 63.9102 48.9535C64.0118 48.9935 64.1288 49.0135 64.2611 49.0135C64.3534 49.0135 64.4458 49.0058 64.5381 48.9904C64.6304 48.9719 64.7012 48.9581 64.7504 48.9489L65.0597 50.4123C64.9613 50.4431 64.8228 50.4785 64.6443 50.5185C64.4658 50.5616 64.2488 50.5877 63.9933 50.5969C63.5194 50.6154 63.1039 50.5523 62.7469 50.4077C62.393 50.263 62.1175 50.0384 61.9205 49.7337C61.7236 49.429 61.6266 49.0443 61.6297 48.5795V41.7102Z" fill="black"/>
</svg>
