<svg width="91" height="91" viewBox="0 0 91 91" fill="none" xmlns="http://www.w3.org/2000/svg">
<rect width="91" height="91" fill="#8BBFFF"/>
<path d="M35.8207 41.0455V50.5H33.8217V41.0455H35.8207ZM39.395 46.4006V50.5H37.4284V43.4091H39.3026V44.6602H39.3857C39.5427 44.2478 39.8058 43.9215 40.1752 43.6815C40.5445 43.4383 40.9923 43.3168 41.5186 43.3168C42.011 43.3168 42.4403 43.4245 42.8066 43.6399C43.1728 43.8554 43.4575 44.1631 43.6606 44.5632C43.8637 44.9602 43.9653 45.4342 43.9653 45.9851V50.5H41.9987V46.3359C42.0017 45.902 41.891 45.5634 41.6663 45.3203C41.4416 45.0741 41.1323 44.951 40.7384 44.951C40.4737 44.951 40.2398 45.0079 40.0367 45.1218C39.8366 45.2357 39.6797 45.4019 39.5658 45.6204C39.455 45.8358 39.3981 46.0959 39.395 46.4006ZM49.3285 43.4091V44.8864H44.9521V43.4091H49.3285ZM45.9538 50.5V42.8967C45.9538 42.3827 46.0539 41.9564 46.2539 41.6179C46.457 41.2794 46.734 41.0254 47.0849 40.8562C47.4357 40.6869 47.8343 40.6023 48.2805 40.6023C48.5821 40.6023 48.8576 40.6254 49.1069 40.6715C49.3593 40.7177 49.547 40.7592 49.6701 40.7962L49.3192 42.2734C49.2423 42.2488 49.1469 42.2257 49.033 42.2042C48.9222 42.1826 48.8084 42.1719 48.6914 42.1719C48.4021 42.1719 48.2005 42.2396 48.0866 42.375C47.9728 42.5073 47.9158 42.6935 47.9158 42.9336V50.5H45.9538ZM53.4798 50.6385C52.7628 50.6385 52.1426 50.4862 51.6194 50.1815C51.0993 49.8737 50.6977 49.4459 50.4145 48.8981C50.1314 48.3472 49.9898 47.7086 49.9898 46.9822C49.9898 46.2498 50.1314 45.6096 50.4145 45.0618C50.6977 44.5109 51.0993 44.0831 51.6194 43.7784C52.1426 43.4706 52.7628 43.3168 53.4798 43.3168C54.1969 43.3168 54.8155 43.4706 55.3357 43.7784C55.8589 44.0831 56.262 44.5109 56.5452 45.0618C56.8283 45.6096 56.9699 46.2498 56.9699 46.9822C56.9699 47.7086 56.8283 48.3472 56.5452 48.8981C56.262 49.4459 55.8589 49.8737 55.3357 50.1815C54.8155 50.4862 54.1969 50.6385 53.4798 50.6385ZM53.4891 49.1151C53.8153 49.1151 54.0877 49.0227 54.3062 48.8381C54.5247 48.6503 54.6894 48.3949 54.8002 48.0717C54.914 47.7486 54.971 47.3808 54.971 46.9684C54.971 46.556 54.914 46.1882 54.8002 45.8651C54.6894 45.5419 54.5247 45.2865 54.3062 45.0987C54.0877 44.911 53.8153 44.8171 53.4891 44.8171C53.1598 44.8171 52.8828 44.911 52.6581 45.0987C52.4365 45.2865 52.2688 45.5419 52.1549 45.8651C52.0441 46.1882 51.9887 46.556 51.9887 46.9684C51.9887 47.3808 52.0441 47.7486 52.1549 48.0717C52.2688 48.3949 52.4365 48.6503 52.6581 48.8381C52.8828 49.0227 53.1598 49.1151 53.4891 49.1151Z" fill="black"/>
</svg>
