<svg width="91" height="91" viewBox="0 0 91 91" fill="none" xmlns="http://www.w3.org/2000/svg">
<rect width="91" height="91" fill="#8BBFFF"/>
<path d="M18.8217 50.5V41.0455H25.1925V42.6935H20.8207V44.9464H24.8647V46.5945H20.8207V48.8519H25.2109V50.5H18.8217ZM30.558 43.4091V44.8864H26.1816V43.4091H30.558ZM27.1833 50.5V42.8967C27.1833 42.3827 27.2834 41.9564 27.4834 41.6179C27.6865 41.2794 27.9635 41.0254 28.3144 40.8562C28.6652 40.6869 29.0638 40.6023 29.51 40.6023C29.8116 40.6023 30.0871 40.6254 30.3364 40.6715C30.5887 40.7177 30.7765 40.7592 30.8996 40.7962L30.5487 42.2734C30.4718 42.2488 30.3764 42.2257 30.2625 42.2042C30.1517 42.1826 30.0378 42.1719 29.9209 42.1719C29.6316 42.1719 29.43 42.2396 29.3161 42.375C29.2023 42.5073 29.1453 42.6935 29.1453 42.9336V50.5H27.1833ZM35.5311 43.4091V44.8864H31.2608V43.4091H35.5311ZM32.2303 41.7102H34.1969V48.321C34.1969 48.5026 34.2246 48.6442 34.28 48.7457C34.3354 48.8442 34.4123 48.9135 34.5108 48.9535C34.6124 48.9935 34.7293 49.0135 34.8617 49.0135C34.954 49.0135 35.0463 49.0058 35.1387 48.9904C35.231 48.9719 35.3018 48.9581 35.351 48.9489L35.6603 50.4123C35.5618 50.4431 35.4234 50.4785 35.2449 50.5185C35.0663 50.5616 34.8494 50.5877 34.5939 50.5969C34.12 50.6154 33.7045 50.5523 33.3475 50.4077C32.9935 50.263 32.7181 50.0384 32.5211 49.7337C32.3242 49.429 32.2272 49.0443 32.2303 48.5795V41.7102ZM39.9675 50.6385C39.2381 50.6385 38.6103 50.4908 38.084 50.1953C37.5608 49.8968 37.1576 49.4751 36.8745 48.9304C36.5913 48.3826 36.4498 47.7347 36.4498 46.9869C36.4498 46.2575 36.5913 45.6173 36.8745 45.0664C37.1576 44.5155 37.5562 44.0862 38.0701 43.7784C38.5872 43.4706 39.1935 43.3168 39.889 43.3168C40.3568 43.3168 40.7923 43.3922 41.1955 43.543C41.6017 43.6907 41.9557 43.9138 42.2573 44.2124C42.562 44.5109 42.7989 44.8864 42.9682 45.3388C43.1375 45.7881 43.2221 46.3144 43.2221 46.9176V47.4577H37.2346V46.239H41.3709C41.3709 45.9558 41.3094 45.705 41.1863 45.4865C41.0632 45.268 40.8923 45.0972 40.6738 44.9741C40.4584 44.8479 40.2076 44.7848 39.9213 44.7848C39.6228 44.7848 39.3581 44.854 39.1273 44.9925C38.8996 45.128 38.7211 45.3111 38.5918 45.5419C38.4625 45.7696 38.3964 46.0236 38.3933 46.3036V47.4624C38.3933 47.8132 38.4579 48.1164 38.5872 48.3718C38.7195 48.6272 38.9057 48.8242 39.1458 48.9627C39.3858 49.1012 39.6705 49.1705 39.9998 49.1705C40.2183 49.1705 40.4184 49.1397 40.6 49.0781C40.7815 49.0166 40.937 48.9242 41.0662 48.8011C41.1955 48.678 41.294 48.5272 41.3617 48.3487L43.1806 48.4688C43.0882 48.9058 42.899 49.2874 42.6127 49.6136C42.3296 49.9368 41.9634 50.1892 41.514 50.3707C41.0678 50.5492 40.5523 50.6385 39.9675 50.6385ZM44.5055 50.5V43.4091H46.4121V44.6463H46.486C46.6152 44.2062 46.8322 43.8738 47.1369 43.6491C47.4416 43.4214 47.7924 43.3075 48.1895 43.3075C48.2879 43.3075 48.3941 43.3137 48.508 43.326C48.6219 43.3383 48.7219 43.3552 48.8081 43.3768V45.1218C48.7157 45.0941 48.588 45.0695 48.4249 45.0479C48.2618 45.0264 48.1125 45.0156 47.9771 45.0156C47.6878 45.0156 47.4293 45.0787 47.2015 45.2049C46.9769 45.328 46.7984 45.5004 46.666 45.7219C46.5368 45.9435 46.4721 46.199 46.4721 46.4883V50.5H44.5055ZM51.7915 41.0455V50.5H49.8248V41.0455H51.7915ZM54.581 53.1591C54.3317 53.1591 54.0978 53.1391 53.8793 53.0991C53.6638 53.0621 53.4853 53.0144 53.3438 52.956L53.7869 51.4879C54.0178 51.5587 54.2255 51.5972 54.4102 51.6033C54.5979 51.6095 54.7595 51.5664 54.8949 51.4741C55.0334 51.3817 55.1457 51.2248 55.2319 51.0032L55.3473 50.7031L52.8036 43.4091H54.8718L56.3398 48.6165H56.4137L57.8956 43.4091H59.9776L57.2216 51.2663C57.0893 51.648 56.9092 51.9804 56.6815 52.2635C56.4568 52.5497 56.1721 52.7698 55.8274 52.9237C55.4827 53.0806 55.0672 53.1591 54.581 53.1591ZM66.8839 45.4311L65.0835 45.5419C65.0527 45.388 64.9865 45.2495 64.8849 45.1264C64.7834 45.0002 64.6495 44.9002 64.4833 44.8263C64.3202 44.7494 64.1248 44.7109 63.897 44.7109C63.5923 44.7109 63.3353 44.7756 63.1261 44.9048C62.9168 45.031 62.8121 45.2003 62.8121 45.4126C62.8121 45.5819 62.8799 45.725 63.0153 45.842C63.1507 45.9589 63.383 46.0528 63.7124 46.1236L64.9957 46.3821C65.6851 46.5237 66.1991 46.7514 66.5376 47.0653C66.8762 47.3793 67.0455 47.7917 67.0455 48.3026C67.0455 48.7673 66.9085 49.1751 66.6346 49.5259C66.3638 49.8768 65.9914 50.1507 65.5174 50.3477C65.0465 50.5415 64.5033 50.6385 63.8878 50.6385C62.9491 50.6385 62.2012 50.4431 61.6442 50.0522C61.0902 49.6583 60.7655 49.1228 60.6701 48.4457L62.6044 48.3441C62.6629 48.6303 62.8045 48.8488 63.0291 48.9996C63.2538 49.1474 63.5415 49.2212 63.8924 49.2212C64.2371 49.2212 64.5141 49.1551 64.7234 49.0227C64.9357 48.8873 65.0434 48.7134 65.0465 48.5011C65.0434 48.3226 64.968 48.1764 64.8203 48.0625C64.6726 47.9455 64.4448 47.8563 64.1371 47.7947L62.9091 47.5501C62.2166 47.4116 61.7011 47.1715 61.3626 46.8299C61.0271 46.4883 60.8594 46.0528 60.8594 45.5234C60.8594 45.0679 60.9825 44.6755 61.2287 44.3462C61.478 44.0169 61.8273 43.763 62.2766 43.5845C62.729 43.406 63.2584 43.3168 63.8647 43.3168C64.7603 43.3168 65.4651 43.506 65.979 43.8846C66.4961 44.2631 66.7977 44.7786 66.8839 45.4311ZM72.0555 43.4091V44.8864H67.7852V43.4091H72.0555ZM68.7547 41.7102H70.7213V48.321C70.7213 48.5026 70.749 48.6442 70.8044 48.7457C70.8598 48.8442 70.9368 48.9135 71.0352 48.9535C71.1368 48.9935 71.2538 49.0135 71.3861 49.0135C71.4784 49.0135 71.5708 49.0058 71.6631 48.9904C71.7554 48.9719 71.8262 48.9581 71.8754 48.9489L72.1847 50.4123C72.0863 50.4431 71.9478 50.4785 71.7693 50.5185C71.5908 50.5616 71.3738 50.5877 71.1183 50.5969C70.6444 50.6154 70.2289 50.5523 69.8719 50.4077C69.518 50.263 69.2425 50.0384 69.0455 49.7337C68.8486 49.429 68.7516 49.0443 68.7547 48.5795V41.7102Z" fill="black"/>
</svg>
