<?xml version="1.0" encoding="UTF-8" standalone="no"?><!DOCTYPE svg PUBLIC "-//W3C//DTD SVG 1.1//EN" "http://www.w3.org/Graphics/SVG/1.1/DTD/svg11.dtd"><svg width="100%" height="100%" viewBox="0 0 213 209" version="1.1" xmlns="http://www.w3.org/2000/svg" xmlns:xlink="http://www.w3.org/1999/xlink" xml:space="preserve" xmlns:serif="http://www.serif.com/" style="fill-rule:evenodd;clip-rule:evenodd;stroke-linecap:round;stroke-linejoin:round;stroke-miterlimit:1.5;"><rect id="aktivity" x="3.998" y="0" width="208.333" height="208.333" style="fill:#d96c05;"/><g id="aktivity1" serif:id="aktivity"><g><g><path d="M149.671,51.891c16.021,11.559 18.302,35.81 5.091,54.119c-13.212,18.31 -36.945,23.79 -52.966,12.23c-16.02,-11.56 -18.302,-35.81 -5.09,-54.12c13.211,-18.309 36.944,-23.789 52.965,-12.229Z" style="fill:#fff;stroke:#fff;stroke-width:8.33px;"/><circle cx="129.024" cy="148.106" r="10.227" style="fill:#fff;stroke:#fff;stroke-width:8.33px;"/><path d="M94.659,126.969l-9.74,-9.545l-27.486,28.047l9.74,9.545l27.486,-28.047Z" style="fill:#fff;stroke:#fff;stroke-width:8.33px;"/></g><g><path d="M149.671,51.891c16.021,11.559 18.302,35.81 5.091,54.119c-13.212,18.31 -36.945,23.79 -52.966,12.23c-16.02,-11.56 -18.302,-35.81 -5.09,-54.12c13.211,-18.309 36.944,-23.789 52.965,-12.229Z" style="fill:#fff;stroke:#fff;stroke-width:8.33px;"/><circle cx="129.024" cy="148.106" r="10.227" style="fill:#fff;stroke:#fff;stroke-width:8.33px;"/><path d="M94.659,126.969l-9.74,-9.545l-27.486,28.047l9.74,9.545l27.486,-28.047Z" style="fill:#fff;stroke:#fff;stroke-width:8.33px;"/></g></g></g></svg>