<?xml version="1.0" encoding="UTF-8" standalone="no"?><!DOCTYPE svg PUBLIC "-//W3C//DTD SVG 1.1//EN" "http://www.w3.org/Graphics/SVG/1.1/DTD/svg11.dtd"><svg width="100%" height="100%" viewBox="0 0 213 209" version="1.1" xmlns="http://www.w3.org/2000/svg" xmlns:xlink="http://www.w3.org/1999/xlink" xml:space="preserve" xmlns:serif="http://www.serif.com/" style="fill-rule:evenodd;clip-rule:evenodd;stroke-linecap:round;stroke-linejoin:round;stroke-miterlimit:1.5;"><rect id="buy" x="1.893" y="0" width="208.333" height="208.333" style="fill:#284029;"/><g id="buy1" serif:id="buy"><g><g><g transform="matrix(66.6667,0,0,66.6667,124.94,126.611)"></g><text x="87.863px" y="126.611px" style="font-family:'Arial-BoldMT', 'Arial', sans-serif;font-weight:700;font-size:66.667px;fill:#fff;">$</text><circle cx="106.06" cy="104.167" r="55.468" style="fill:none;stroke:#fff;stroke-width:12.5px;"/><path d="M160.482,92.567l21.941,25.435l-43.883,0l21.942,-25.435Z" style="fill:#fff;stroke:#fff;stroke-width:12.5px;"/><path d="M53.665,120.984l21.941,-25.435l-43.882,0l21.941,25.435Z" style="fill:#fff;stroke:#fff;stroke-width:12.5px;"/></g><g><g transform="matrix(66.6667,0,0,66.6667,124.94,126.611)"></g><text x="87.863px" y="126.611px" style="font-family:'Arial-BoldMT', 'Arial', sans-serif;font-weight:700;font-size:66.667px;fill:#fff;">$</text><circle cx="106.06" cy="104.167" r="55.468" style="fill:none;stroke:#fff;stroke-width:12.5px;"/><path d="M160.482,92.567l21.941,25.435l-43.883,0l21.942,-25.435Z" style="fill:#fff;stroke:#fff;stroke-width:12.5px;"/><path d="M53.665,120.984l21.941,-25.435l-43.882,0l21.941,25.435Z" style="fill:#fff;stroke:#fff;stroke-width:12.5px;"/></g></g></g></svg>