<?xml version="1.0" encoding="UTF-8" standalone="no"?><!DOCTYPE svg PUBLIC "-//W3C//DTD SVG 1.1//EN" "http://www.w3.org/Graphics/SVG/1.1/DTD/svg11.dtd"><svg width="100%" height="100%" viewBox="0 0 213 209" version="1.1" xmlns="http://www.w3.org/2000/svg" xmlns:xlink="http://www.w3.org/1999/xlink" xml:space="preserve" xmlns:serif="http://www.serif.com/" style="fill-rule:evenodd;clip-rule:evenodd;stroke-linecap:round;stroke-linejoin:round;stroke-miterlimit:1.5;"><rect id="education" x="3.998" y="0" width="208.333" height="208.333" style="fill:#68b0aa;"/><g id="education1" serif:id="education"><g><g><path d="M108.165,71.959c-18.267,-9.616 -36.418,-15.438 -54.167,-8.125l-0,75.833c19.259,-6.259 36.857,0.95 54.167,8.125l-0,-75.833Z" style="fill:none;stroke:#fff;stroke-width:12.5px;"/><path d="M108.165,71.959c18.266,-9.616 36.417,-15.438 54.166,-8.125l0,75.833c-19.258,-6.259 -36.857,0.95 -54.166,8.125l-0,-75.833Z" style="fill:none;stroke:#fff;stroke-width:12.5px;"/></g><g><path d="M108.165,71.959c-18.267,-9.616 -36.418,-15.438 -54.167,-8.125l-0,75.833c19.259,-6.259 36.857,0.95 54.167,8.125l-0,-75.833Z" style="fill:none;stroke:#fff;stroke-width:12.5px;"/><path d="M108.165,71.959c18.266,-9.616 36.417,-15.438 54.166,-8.125l0,75.833c-19.258,-6.259 -36.857,0.95 -54.166,8.125l-0,-75.833Z" style="fill:none;stroke:#fff;stroke-width:12.5px;"/></g></g></g></svg>