<?xml version="1.0" encoding="UTF-8" standalone="no"?><!DOCTYPE svg PUBLIC "-//W3C//DTD SVG 1.1//EN" "http://www.w3.org/Graphics/SVG/1.1/DTD/svg11.dtd"><svg width="100%" height="100%" viewBox="0 0 213 209" version="1.1" xmlns="http://www.w3.org/2000/svg" xmlns:xlink="http://www.w3.org/1999/xlink" xml:space="preserve" xmlns:serif="http://www.serif.com/" style="fill-rule:evenodd;clip-rule:evenodd;stroke-linecap:round;stroke-linejoin:round;stroke-miterlimit:1.5;"><rect id="event" x="3.998" y="0" width="208.333" height="208.333" style="fill:#d8b4a0;"/><g id="event1" serif:id="event"><g><g><path d="M166.498,77.449c-0,-13.487 -10.95,-24.437 -24.437,-24.437l-67.793,0c-13.487,0 -24.437,10.95 -24.437,24.437l0,48.874c0,13.487 10.95,24.437 24.437,24.437l67.793,0c13.487,0 24.437,-10.95 24.437,-24.437l-0,-48.874Z" style="fill:none;"/><clipPath id="_clip1"><path d="M166.498,77.449c-0,-13.487 -10.95,-24.437 -24.437,-24.437l-67.793,0c-13.487,0 -24.437,10.95 -24.437,24.437l0,48.874c0,13.487 10.95,24.437 24.437,24.437l67.793,0c13.487,0 24.437,-10.95 24.437,-24.437l-0,-48.874Z"/></clipPath><g clip-path="url(#_clip1)"><path d="M51.408,76.661l113.513,0" style="fill:none;stroke:#fff;stroke-width:8.33px;"/></g><path d="M166.498,77.449c-0,-13.487 -10.95,-24.437 -24.437,-24.437l-67.793,0c-13.487,0 -24.437,10.95 -24.437,24.437l0,48.874c0,13.487 10.95,24.437 24.437,24.437l67.793,0c13.487,0 24.437,-10.95 24.437,-24.437l-0,-48.874Z" style="fill:none;stroke:#fff;stroke-width:12.5px;"/><path d="M89.246,41.188c-0,-1.305 -1.06,-2.365 -2.365,-2.365l-4.73,0c-1.305,0 -2.365,1.06 -2.365,2.365l0,23.649c0,1.305 1.06,2.365 2.365,2.365l4.73,-0c1.305,-0 2.365,-1.06 2.365,-2.365l-0,-23.649Z" style="fill:#fff;stroke:#fff;stroke-width:4.17px;"/><path d="M139.696,41.188c0,-1.305 -1.06,-2.365 -2.365,-2.365l-4.73,0c-1.305,0 -2.364,1.06 -2.364,2.365l-0,23.649c-0,1.305 1.059,2.365 2.364,2.365l4.73,-0c1.305,-0 2.365,-1.06 2.365,-2.365l0,-23.649Z" style="fill:#fff;stroke:#fff;stroke-width:4.17px;"/><path d="M108.165,88.228l4.955,15.252l16.036,-0l-12.973,9.426l4.955,15.251l-12.973,-9.426l-12.974,9.426l4.955,-15.251l-12.973,-9.426l16.036,-0l4.956,-15.252Z" style="fill:#fff;stroke:#fff;stroke-width:4.17px;"/></g><g><path d="M166.498,77.449c-0,-13.487 -10.95,-24.437 -24.437,-24.437l-67.793,0c-13.487,0 -24.437,10.95 -24.437,24.437l0,48.874c0,13.487 10.95,24.437 24.437,24.437l67.793,0c13.487,0 24.437,-10.95 24.437,-24.437l-0,-48.874Z" style="fill:none;"/><clipPath id="_clip2"><path d="M166.498,77.449c-0,-13.487 -10.95,-24.437 -24.437,-24.437l-67.793,0c-13.487,0 -24.437,10.95 -24.437,24.437l0,48.874c0,13.487 10.95,24.437 24.437,24.437l67.793,0c13.487,0 24.437,-10.95 24.437,-24.437l-0,-48.874Z"/></clipPath><g clip-path="url(#_clip2)"><path d="M51.408,76.661l113.513,0" style="fill:none;stroke:#fff;stroke-width:8.33px;"/></g><path d="M166.498,77.449c-0,-13.487 -10.95,-24.437 -24.437,-24.437l-67.793,0c-13.487,0 -24.437,10.95 -24.437,24.437l0,48.874c0,13.487 10.95,24.437 24.437,24.437l67.793,0c13.487,0 24.437,-10.95 24.437,-24.437l-0,-48.874Z" style="fill:none;stroke:#fff;stroke-width:12.5px;"/><path d="M89.246,41.188c-0,-1.305 -1.06,-2.365 -2.365,-2.365l-4.73,0c-1.305,0 -2.365,1.06 -2.365,2.365l0,23.649c0,1.305 1.06,2.365 2.365,2.365l4.73,-0c1.305,-0 2.365,-1.06 2.365,-2.365l-0,-23.649Z" style="fill:#fff;stroke:#fff;stroke-width:4.17px;"/><path d="M139.696,41.188c0,-1.305 -1.06,-2.365 -2.365,-2.365l-4.73,0c-1.305,0 -2.364,1.06 -2.364,2.365l-0,23.649c-0,1.305 1.059,2.365 2.364,2.365l4.73,-0c1.305,-0 2.365,-1.06 2.365,-2.365l0,-23.649Z" style="fill:#fff;stroke:#fff;stroke-width:4.17px;"/><path d="M108.165,88.228l4.955,15.252l16.036,-0l-12.973,9.426l4.955,15.251l-12.973,-9.426l-12.974,9.426l4.955,-15.251l-12.973,-9.426l16.036,-0l4.956,-15.252Z" style="fill:#fff;stroke:#fff;stroke-width:4.17px;"/></g></g></g></svg>