<?xml version="1.0" encoding="UTF-8" standalone="no"?><!DOCTYPE svg PUBLIC "-//W3C//DTD SVG 1.1//EN" "http://www.w3.org/Graphics/SVG/1.1/DTD/svg11.dtd"><svg width="100%" height="100%" viewBox="0 0 213 209" version="1.1" xmlns="http://www.w3.org/2000/svg" xmlns:xlink="http://www.w3.org/1999/xlink" xml:space="preserve" xmlns:serif="http://www.serif.com/" style="fill-rule:evenodd;clip-rule:evenodd;stroke-linecap:round;stroke-linejoin:round;stroke-miterlimit:1.5;"><rect id="lost" x="3.998" y="0" width="208.333" height="208.333" style="fill:#8fc0a9;"/><g id="lost1" serif:id="lost"><g><g><g><path d="M57.355,78.134c9.117,-6.755 22.003,-4.836 28.758,4.282c6.754,9.117 4.835,22.003 -4.282,28.757c-9.118,6.755 -22.004,4.836 -28.758,-4.281c-6.754,-9.118 -4.836,-22.004 4.282,-28.758Z" style="fill:none;stroke:#fff;stroke-width:12.5px;"/><path d="M74.762,118.793l28.144,37.99l15.709,3.945l0.794,-15.99l-6.204,-6.142l-1.816,-9.034l-8.384,-2.77l-1.069,-7.637l-7.142,-2.03l-6.405,-9.609" style="fill:none;stroke:#fff;stroke-width:12.5px;"/></g><path d="M178.729,66.543l-32.806,-18.166l-32.295,58.322l32.806,18.166l32.295,-58.322Z" style="fill:none;stroke:#fff;stroke-width:12.5px;"/><path d="M150.952,67.233l8.261,4.309" style="fill:none;stroke:#fff;stroke-width:6.25px;"/></g><g><g><path d="M57.355,78.134c9.117,-6.755 22.003,-4.836 28.758,4.282c6.754,9.117 4.835,22.003 -4.282,28.757c-9.118,6.755 -22.004,4.836 -28.758,-4.281c-6.754,-9.118 -4.836,-22.004 4.282,-28.758Z" style="fill:none;stroke:#fff;stroke-width:12.5px;"/><path d="M74.762,118.793l28.144,37.99l15.709,3.945l0.794,-15.99l-6.204,-6.142l-1.816,-9.034l-8.384,-2.77l-1.069,-7.637l-7.142,-2.03l-6.405,-9.609" style="fill:none;stroke:#fff;stroke-width:12.5px;"/></g><path d="M178.729,66.543l-32.806,-18.166l-32.295,58.322l32.806,18.166l32.295,-58.322Z" style="fill:none;stroke:#fff;stroke-width:12.5px;"/><path d="M150.952,67.233l8.261,4.309" style="fill:none;stroke:#fff;stroke-width:6.25px;"/></g></g></g></svg>